# xmcd CD database file
#
# Track frame offsets:
#	150
#	16855
#	33122
#	48807
#	65764
#	81249
#	99069
#	116094
#	133266
#	149216
#
# Disc length: 2177 seconds
#
# Revision: 0
# Processed by: cddbd v1.5.2PL0 Copyright (c) Steve Scherf et al.
# Submitted via: CDex 1.51
#
DISCID=86087f0a
DTITLE=Jeff Barbra - Country Music For Country People
DYEAR=2007
DGENRE=Country
TTITLE0=Only Sad, Sad Songs Make Me Happy
TTITLE1=You Can't Fall From the Ground
TTITLE2=My god
TTITLE3=Blame It On Vern
TTITLE4=Shine a Little Light On Me
TTITLE5=I Like Beer
TTITLE6=These Hills
TTITLE7=King For a Day
TTITLE8=When I Get To Drinking
TTITLE9=I'll Take the Moon
EXTD=YEAR: 2007
EXTT0=
EXTT1=
EXTT2=
EXTT3=
EXTT4=
EXTT5=
EXTT6=
EXTT7=
EXTT8=
EXTT9=
PLAYORDER=
